name C:\Users\u0101727\Documents\MyRepositories\upper-imu-dc\Results\main_tracking\Case_70\kinematics.mot
datacolumns 10
datarows 42
range 2.80000000 3.21000000
endheader 
time	clav_prot	clav_elev	scapula_abduction	scapula_elevation	scapula_upward_rot	scapula_winging	plane_elv	shoulder_elv	axial_rot	
          2.80000000	        -18.29313943	         -6.42764553	         -6.98532248	         -4.24663891	          8.65119607	          6.69595932	        -23.40642436	         18.45298598	         42.73194815	
          2.81000000	        -18.30977827	         -6.41804985	         -6.99931037	         -4.24445470	          8.64730522	          6.70022486	        -23.45167297	         18.40096019	         42.71690435	
          2.82000000	        -18.33445833	         -6.41452181	         -7.04478205	         -4.24218702	          8.64420417	          6.70417807	        -23.49650087	         18.35038660	         42.70137604	
          2.83000000	        -18.35899075	         -6.41152873	         -7.09022993	         -4.24014615	          8.64044886	          6.70842677	        -23.54040133	         18.29929096	         42.68434880	
          2.84000000	        -18.38325109	         -6.40935376	         -7.13570259	         -4.23837480	          8.63542554	          6.71319393	        -23.58268055	         18.24730609	         42.66459873	
          2.85000000	        -18.40716971	         -6.40811587	         -7.18122716	         -4.23687029	          8.62880587	          6.71858765	        -23.62251103	         18.19458200	         42.64081948	
          2.86000000	        -18.43068812	         -6.40789794	         -7.22681166	         -4.23562656	          8.62034814	          6.72468498	        -23.65900737	         18.14147582	         42.61176390	
          2.87000000	        -18.45374921	         -6.40877980	         -7.27245320	         -4.23464249	          8.60983679	          6.73155605	        -23.69128956	         18.08844585	         42.57636217	
          2.88000000	        -18.47629858	         -6.41084507	         -7.31815027	         -4.23392122	          8.59706058	          6.73927185	        -23.71853066	         18.03601356	         42.53378504	
          2.89000000	        -18.49828871	         -6.41418039	         -7.36391369	         -4.23346798	          8.58180631	          6.74790621	        -23.73998443	         17.98475025	         42.48344404	
          2.90000000	        -18.51968349	         -6.41887248	         -7.40977478	         -4.23328811	          8.56385884	          6.75753556	        -23.75499583	         17.93527580	         42.42493550	
          2.91000000	        -18.54046137	         -6.42500427	         -7.45578963	         -4.23338540	          8.54300544	          6.76823699	        -23.76299699	         17.88826402	         42.35794162	
          2.92000000	        -18.56061695	         -6.43264988	         -7.50203886	         -4.23376020	          8.51904293	          6.78008508	        -23.76349212	         17.84445146	         42.28210312	
          2.93000000	        -18.58016022	         -6.44186881	         -7.54862267	         -4.23440755	          8.49178697	          6.79314750	        -23.75603470	         17.80464742	         42.19687611	
          2.94000000	        -18.59911360	         -6.45270014	         -7.59565107	         -4.23531542	          8.46108297	          6.80747978	        -23.74020218	         17.76974323	         42.10138878	
          2.95000000	        -18.61750728	         -6.46515714	         -7.64323021	         -4.23646384	          8.42681864	          6.82311966	        -23.71557557	         17.74071732	         41.99432120	
          2.96000000	        -18.63537407	         -6.47922260	         -7.69144665	         -4.23782505	          8.38893872	          6.84008101	        -23.68173078	         17.71863229	         41.87383827	
          2.97000000	        -18.65274522	         -6.49484439	         -7.74035234	         -4.23936444	          8.34746152	          6.85834761	        -23.63824575	         17.70462055	         41.73760302	
          2.98000000	        -18.66964843	         -6.51193081	         -7.78995322	         -4.24104168	          8.30249609	          6.87786712	        -23.58472304	         17.69985747	         41.58288538	
          2.99000000	        -18.68610848	         -6.53034593	         -7.84020314	         -4.24281152	          8.25425801	          6.89854574	        -23.52082482	         17.70552357	         41.40676296	
          3.00000000	        -18.70214983	         -6.54990540	         -7.89100301	         -4.24462425	          8.20308189	          6.92024426	        -23.44631556	         17.72276001	         41.20638722	
          3.01000000	        -18.71780028	         -6.57037362	         -7.94220383	         -4.24642614	          8.14942979	          6.94277568	        -23.36110674	         17.75262375	         40.97926767	
          3.02000000	        -18.73309462	         -6.59146327	         -7.99361169	         -4.24816022	          8.09389436	          6.96590492	        -23.26529769	         17.79604893	         40.72351977	
          3.03000000	        -18.74807731	         -6.61283773	         -8.04499392	         -4.24976770	          8.03719621	          6.98935075	        -23.15920745	         17.85381898	         40.43803560	
          3.04000000	        -18.76280412	         -6.63411676	         -8.09608619	         -4.25118990	          7.98017441	          7.01279030	        -23.04339422	         17.92655156	         40.12255772	
          3.05000000	        -18.77734311	         -6.65488529	         -8.14660136	         -4.25237058	          7.92376982	          7.03586633	        -22.91866066	         18.01469655	         39.77765497	
          3.06000000	        -18.79177515	         -6.67470502	         -8.19624066	         -4.25325848	          7.86900143	          7.05819698	        -22.78604516	         18.11854600	         39.40461093	
          3.07000000	        -18.80619444	         -6.69312827	         -8.24470732	         -4.25380976	          7.81693665	          7.07938776	        -22.64680008	         18.23825371	         39.00524328	
          3.08000000	        -18.82070900	         -6.70971345	         -8.29172178	         -4.25399071	          7.76865761	          7.09904512	        -22.50235971	         18.37386155	         38.58167881	
          3.09000000	        -18.83544103	         -6.72404124	         -8.33703694	         -4.25378034	          7.72522582	          7.11679044	        -22.35430135	         18.52532879	         38.13611433	
          3.10000000	        -18.85052662	         -6.73573032	         -8.38045150	         -4.25317319	          7.68764871	          7.13227344	        -22.20430300	         18.69256090	         37.67059826	
          3.11000000	        -18.86611497	         -6.74445174	         -8.42182002	         -4.25218222	          7.65685063	          7.14518388	        -22.05409968	         18.87543354	         37.18686566	
          3.12000000	        -18.88236713	         -6.74994080	         -8.46105994	         -4.25084115	          7.63364918	          7.15526099	        -21.90543908	         19.07380829	         36.68624959	
          3.13000000	        -18.89945532	         -6.75200521	         -8.49815658	         -4.24920602	          7.61873863	          7.16229998	        -21.76003682	         19.28753862	         36.16967811	
          3.14000000	        -18.91756322	         -6.75052891	         -8.53316691	         -4.24735547	          7.61268080	          7.16615545	        -21.61953175	         19.51646565	         35.63775041	
          3.15000000	        -18.93688757	         -6.74547143	         -8.56622301	         -4.24538952	          7.61590288	          7.16674170	        -21.48544275	         19.76040474	         35.09087079	
          3.16000000	        -18.95764138	         -6.73686315	         -8.59753624	         -4.24342703	          7.62870115	          7.16403049	        -21.35912831	         20.01912535	         34.52941049	
          3.17000000	        -18.98005934	         -6.72479796	         -8.62740357	         -4.24160246	          7.65124910	          7.15804715	        -21.24175042	         20.29232662	         33.95386845	
          3.18000000	        -19.00440596	         -6.70942457	         -8.65621768	         -4.24006257	          7.68360859	          7.14886593	        -21.13424451	         20.57961132	         33.36500997	
          3.19000000	        -19.03098629	         -6.69093729	         -8.68448027	         -4.23896370	          7.72574348	          7.13660485	        -21.03729749	         20.88046166	         32.76397126	
          3.20000000	        -19.06015734	         -6.66956621	         -8.71281596	         -4.23846908	          7.77753532	          7.12141998	        -20.95133542	         21.19422011	         32.15232329	
          3.21000000	        -19.09233683	         -6.64556617	         -8.74198071	         -4.23874583	          7.83880123	          7.10349820	        -20.87652085	         21.52007892	         31.53209152	
